<svg xmlns="http://www.w3.org/2000/svg" viewBox="0 0 744.19 510.91"><defs><style>.cls-1{fill:#fff;stroke:#000;stroke-miterlimit:10;}.cls-2{font-size:61.08px;fill:#f7931e;}.cls-2,.cls-3{font-family:Rubik-Regular, Rubik;}.cls-3{font-size:30px;}.cls-4{letter-spacing:-0.02em;}.cls-5{letter-spacing:0em;}.cls-6{letter-spacing:0em;}.cls-7{letter-spacing:-0.03em;}.cls-8{letter-spacing:-0.01em;}.cls-9{letter-spacing:-0.01em;}.cls-10{letter-spacing:-0.02em;}.cls-11{letter-spacing:0em;}.cls-12{letter-spacing:0em;}.cls-13{letter-spacing:-0.01em;}.cls-14{letter-spacing:-0.02em;}.cls-15{letter-spacing:-0.05em;}.cls-16{letter-spacing:0em;}.cls-17{letter-spacing:-0.01em;}.cls-18{letter-spacing:-0.02em;}.cls-19{letter-spacing:0em;}</style></defs><g id="Layer_2" data-name="Layer 2"><g id="Layer_1-2" data-name="Layer 1"><rect id="Rectangle" class="cls-1" x="0.5" y="0.5" width="743.19" height="509.91" rx="12"/><text id="aboutTXT" class="cls-2" transform="translate(285.05 119.12) scale(1.06 1)">תוארוה</text><text class="cls-3" transform="translate(38.19 204.31)"><tspan class="cls-4"> </tspan><tspan x="6.69" y="0">רת</tspan><tspan class="cls-5" x="42.57" y="0">ו</tspan><tspan class="cls-6" x="49.83" y="0">יב ריהמה ן</tspan><tspan class="cls-7" x="173.82" y="0">מ</tspan><tspan x="191.43" y="0">זב הפשאה יט</tspan><tspan class="cls-8" x="353.55" y="0">י</tspan><tspan x="360.18" y="0">רפ</tspan><tspan class="cls-9" x="393.41" y="0"> </tspan><tspan x="400.38" y="0">לכ תא ןיימלו ףוס</tspan><tspan class="cls-10" x="598.58" y="0">א</tspan><tspan class="cls-11" x="615.47" y="0">ל שי</tspan><tspan x="189.51" y="36">.תוי</tspan><tspan class="cls-12" x="231.06" y="36">ו</tspan><tspan x="238.26" y="36">עט תוחפש </tspan><tspan class="cls-13" x="373.59" y="36">ה</tspan><tspan x="391.94" y="36">מכ םעו</tspan></text><text class="cls-3" transform="translate(18.85 305.03)"><tspan xml:space="preserve"> הנוכנה ת</tspan><tspan class="cls-14" x="119.91" y="0">ש</tspan><tspan x="141.03" y="0">רה לא ותוא ר</tspan><tspan class="cls-15" x="299.16" y="0">ו</tspan><tspan class="cls-16" x="304.98" y="0">ר</tspan><tspan class="cls-14" x="321.12" y="0">ג</tspan><tspan x="333.78" y="0">ל שי הפשאה ט</tspan><tspan class="cls-17" x="512.6" y="0">י</tspan><tspan x="519.23" y="0">רפ תא ןיי</tspan><tspan class="cls-14" x="625.58" y="0">מ</tspan><tspan x="643.52" y="0">ל </tspan><tspan class="cls-18" x="666.56" y="0">י</tspan><tspan x="673.04" y="0">דכ</tspan><tspan x="165.3" y="36">.</tspan><tspan class="cls-4" x="172.86" y="36">ו</tspan><tspan x="179.55" y="36">ל המיאתמה היר</tspan><tspan class="cls-19" x="370.05" y="36">ו</tspan><tspan x="377.34" y="36">גט</tspan><tspan class="cls-14" x="409.55" y="36">ק</tspan><tspan x="427.61" y="36">ל םאתהב</tspan></text><text class="cls-3"><tspan x="316.66" y="415.2">!החלצהב</tspan></text></g></g></svg>